<svg width="32" height="32" viewBox="0 0 32 32" fill="none" xmlns="http://www.w3.org/2000/svg">
<rect width="32" height="32" rx="4" fill="#3C3C3C"/>
<path d="M20.3708 10.0004C20.4883 10.0002 20.4883 10.0002 20.6081 10C22.595 10.0021 25.2692 10.0498 26.8459 11.6585C27.5167 12.5073 27.6455 13.2652 27.6226 14.3975C27.5447 15.279 27.2091 15.9893 26.6552 16.6012C26.321 16.8292 25.9741 17.014 25.6207 17.1986C25.4609 17.2898 25.3014 17.3819 25.1423 17.4749C25.0271 17.5414 24.9118 17.6079 24.7931 17.6765C24.9516 18.3271 25.3385 18.7444 25.7242 19.2296C25.8358 19.3749 25.8358 19.3749 25.9496 19.5232C26.3195 20.0043 26.693 20.4714 27.0948 20.9172C27.4573 21.3316 27.8146 21.7789 28 22.3359C27.9802 22.5954 27.9802 22.5954 27.8966 22.8138C27.4929 22.9692 27.1095 22.9509 26.6888 22.9506C26.5971 22.951 26.5054 22.9514 26.4109 22.9518C26.1071 22.953 25.8033 22.9532 25.4995 22.9533C25.2883 22.9537 25.0771 22.9541 24.8659 22.9545C24.4227 22.9553 23.9796 22.9555 23.5364 22.9554C22.9693 22.9554 22.4022 22.957 21.8351 22.9591C21.3987 22.9604 20.9622 22.9607 20.5257 22.9606C20.3167 22.9607 20.1077 22.9613 19.8987 22.9622C19.6058 22.9634 19.3129 22.963 19.02 22.9623C18.9341 22.963 18.8482 22.9636 18.7597 22.9643C18.1835 22.9607 17.0007 23 17.0007 23C17.012 23.0101 17.0007 21.0884 17.0007 21.0884C17.0017 20.9741 16.9997 20.8477 17.0007 20.73C17.0043 20.3524 17.0007 19.6547 17.0007 19.6547C17.0036 19.3929 16.9981 19.0802 17.0007 18.8184C17.008 18.1294 17.0007 16.8471 17.0007 16.8471C17.0102 16.144 17.0007 14.6966 17.0007 14.6966C17.0163 13.317 17.0007 10.4553 17.0007 10.4553C17.772 10.056 17.9094 10.1088 18.2726 10.0691C18.342 10.0614 18.4114 10.0537 18.4829 10.0458C19.1114 9.99847 19.7412 10.001 20.3708 10.0004Z" fill="#F8CE2E"/>
<path d="M13.5428 12.3926C14.7411 13.3744 15.6898 14.6212 15.9603 16.2471C16.1124 17.7242 15.834 18.8804 15.0162 20.0847C13.1984 22.2887 9.97402 22.7624 7.3793 22.9614C6.85497 22.986 6.33156 22.996 5.80674 22.9981C5.62251 22.999 5.62251 22.999 5.43456 23C4.53627 22.9914 4.53627 22.9914 4.06865 22.7267C4.05588 21.172 4.04607 19.6173 4.04006 18.0626C4.03718 17.3407 4.03327 16.6188 4.02703 15.897C4.02104 15.2007 4.01773 14.5045 4.0163 13.8082C4.01528 13.5422 4.01328 13.2762 4.01031 13.0102C4.00632 12.6383 4.00575 12.2667 4.00601 11.8949C4.00403 11.7842 4.00204 11.6735 4 11.5595C4.0021 11.2792 4.00762 11.0287 4.06865 10.756C6.16782 8.8414 11.6274 11.003 13.5428 12.3926Z" fill="#F8CE2E"/>
</svg>
